# xmcd
#
# Track frame offsets: 
#        150
#        12100
#        22597
#        33259
#        45337
#        58280
#        70917
#        86060
#        96167
#        109417
#        125618
#        139112
#        152561
#        165047
#        178337
#        191649
#        204944
#        216993
#        227362
#        249185
#        263743
#        279272
#        293162
#        306423
#        322116
#
# Disc length: 4497 seconds
#
# Revision: 0
# Processed by: cddbd v1.5.2PL0 Copyright (c) Steve Scherf et al.
# Submitted via: ExactAudioCopy v0.95a3
#
DISCID=57118f19
DTITLE=Joe Dolan - The Platinum Collection
DYEAR=2008
DGENRE=Pop
TTITLE0=The Answer To Everything
TTITLE1=I Love You More and More Everyday
TTITLE2=My Own Peculiar Way
TTITLE3=But I Do
TTITLE4=Pretty Brown Eyes
TTITLE5=Aching Breaking Heart
TTITLE6=Tar And Cement
TTITLE7=The House With The Whitewashed Gable
TTITLE8=Love Of The Common People
TTITLE9=Unchained Melody
TTITLE10=Westmeath Batchelor
TTITLE11=Make Me An Island
TTITLE12=Teresa
TTITLE13=You're Such A Good Looking Woman
TTITLE14=It Makes No Difference
TTITLE15=Sometimes A Man Has To Cry
TTITLE16=You And The Looking Glass
TTITLE17=Saturday Night At The Movies
TTITLE18=Danny Boy
TTITLE19=Sweet Little Rock n Roller
TTITLE20=I'll Take The Money And Run
TTITLE21=Lady In Blue
TTITLE22=Crazy Woman
TTITLE23=Sister Mary
TTITLE24=You Belong To Me Baby
EXTD=
EXTT0=
EXTT1=
EXTT2=
EXTT3=
EXTT4=
EXTT5=
EXTT6=
EXTT7=
EXTT8=
EXTT9=
EXTT10=
EXTT11=
EXTT12=
EXTT13=
EXTT14=
EXTT15=
EXTT16=
EXTT17=
EXTT18=
EXTT19=
EXTT20=
EXTT21=
EXTT22=
EXTT23=
EXTT24=
PLAYORDER=
